<svg xmlns="http://www.w3.org/2000/svg" viewBox="0 0 1100 1300" role="img" aria-labelledby="title desc">
  <title id="title">VEXILO workshop and packaging</title>
  <desc id="desc">Illustrated company workshop preparing custom flags and packing VEXILO boxes.</desc>
  <defs>
    <linearGradient id="wall" x1="0" y1="0" x2="0" y2="1">
      <stop offset="0" stop-color="#f8fafc"/>
      <stop offset="1" stop-color="#dbe3ee"/>
    </linearGradient>
    <linearGradient id="table" x1="0" y1="0" x2="1" y2="1">
      <stop offset="0" stop-color="#2b3038"/>
      <stop offset="1" stop-color="#0d0f12"/>
    </linearGradient>
    <filter id="shadow" x="-20%" y="-20%" width="140%" height="150%">
      <feDropShadow dx="0" dy="22" stdDeviation="22" flood-color="#111827" flood-opacity=".24"/>
    </filter>
  </defs>
  <rect width="1100" height="1300" fill="url(#wall)"/>
  <rect y="860" width="1100" height="440" fill="#cbd5e1"/>
  <g opacity=".6">
    <rect x="90" y="120" width="920" height="20" rx="10" fill="#111"/>
    <rect x="142" y="177" width="816" height="8" rx="4" fill="#94a3b8"/>
  </g>
  <g filter="url(#shadow)">
    <rect x="182" y="248" width="736" height="260" rx="24" fill="#fff"/>
    <text x="550" y="348" text-anchor="middle" font-family="Segoe UI, Arial, sans-serif" font-size="72" font-weight="900" letter-spacing="12" fill="#111">VEXILO</text>
    <path d="M402 401h296" stroke="#111" stroke-width="10" stroke-linecap="round"/>
    <path d="M458 443c64-35 124-35 184 0" fill="none" stroke="#d90429" stroke-width="14" stroke-linecap="round"/>
  </g>
  <g filter="url(#shadow)">
    <rect x="132" y="684" width="836" height="210" rx="24" fill="url(#table)"/>
    <rect x="189" y="605" width="292" height="108" rx="16" fill="#d90429"/>
    <rect x="189" y="641" width="292" height="36" fill="#f9c74f"/>
    <rect x="189" y="677" width="292" height="36" rx="16" fill="#d90429"/>
    <rect x="541" y="610" width="176" height="124" rx="12" fill="#f1c16d"/>
    <path d="M541 648h176M629 610v124" stroke="#94631f" stroke-width="6" opacity=".45"/>
    <text x="629" y="686" text-anchor="middle" fill="#111" font-family="Segoe UI, Arial, sans-serif" font-size="24" font-weight="900">VEXILO</text>
    <rect x="744" y="582" width="190" height="152" rx="14" fill="#e5b15f"/>
    <path d="M744 632h190M839 582v152" stroke="#94631f" stroke-width="6" opacity=".45"/>
    <text x="839" y="676" text-anchor="middle" fill="#111" font-family="Segoe UI, Arial, sans-serif" font-size="25" font-weight="900">VEXILO</text>
  </g>
  <g filter="url(#shadow)">
    <circle cx="314" cy="566" r="50" fill="#f2c6a0"/>
    <path d="M241 745c8-91 42-137 102-137s96 46 103 137Z" fill="#111827"/>
    <path d="M286 627h58v72h-58Z" fill="#f2c6a0"/>
    <rect x="245" y="742" width="190" height="36" rx="18" fill="#111827"/>
    <circle cx="770" cy="544" r="48" fill="#f2c6a0"/>
    <path d="M702 718c8-86 40-130 96-130s89 44 96 130Z" fill="#475569"/>
    <path d="M744 604h54v66h-54Z" fill="#f2c6a0"/>
    <rect x="681" y="717" width="214" height="36" rx="18" fill="#475569"/>
  </g>
  <g opacity=".72">
    <rect x="96" y="976" width="238" height="170" rx="16" fill="#e5b15f"/>
    <path d="M96 1032h238M215 976v170" stroke="#94631f" stroke-width="6" opacity=".45"/>
    <text x="215" y="1084" text-anchor="middle" fill="#111" font-family="Segoe UI, Arial, sans-serif" font-size="28" font-weight="900">VEXILO</text>
    <rect x="383" y="1008" width="316" height="142" rx="16" fill="#f1c16d"/>
    <path d="M383 1058h316M541 1008v142" stroke="#94631f" stroke-width="6" opacity=".45"/>
    <text x="541" y="1095" text-anchor="middle" fill="#111" font-family="Segoe UI, Arial, sans-serif" font-size="30" font-weight="900">VEXILO</text>
  </g>
</svg>
